<svg width="148" height="150" viewBox="0 0 148 150" fill="none" xmlns="http://www.w3.org/2000/svg">
<path d="M70.5233 110.774C64.72 103.976 59.3699 96.9409 54.5197 89.5319C48.2563 79.964 42.8175 69.9739 39.2817 59.0462C37.289 52.8876 35.9382 46.5958 36.0607 40.0733C36.2167 31.7663 39.0787 24.4237 44.1967 17.9536C50.1191 10.4666 57.8262 5.73244 67.1844 4.03558C72.7294 3.03014 78.3758 3.23929 83.8409 4.90828C99.2387 9.6105 108.304 20.0465 111.381 35.7446C112.715 42.5555 111.454 49.2219 109.662 55.7852C106.836 66.1369 102.075 75.6272 96.513 84.7419C90.9392 93.8757 84.5772 102.437 77.6564 110.588C76.4706 111.984 75.2074 113.427 73.1357 112.671C72.1866 112.324 71.4242 111.466 70.5233 110.774ZM88.083 14.1138C81.7791 10.857 75.1316 9.94272 68.1638 11.17C52.6608 13.9005 40.6451 28.8032 43.3156 46.3269C44.2924 52.7369 46.2436 58.8709 48.8478 64.8045C54.2682 77.155 61.6316 88.3063 69.8594 98.923C71.0969 100.52 72.4299 102.043 73.7736 103.666C74.0461 103.374 74.2399 103.185 74.4128 102.978C81.3616 94.6756 87.5729 85.8536 92.946 76.452C97.3906 68.675 101.115 60.5799 103.217 51.8284C104.344 47.1379 105.254 42.3942 104.471 37.534C102.8 27.1615 97.4869 19.3043 88.083 14.1138Z" fill="#E60E68"/>
<path d="M85.2888 118.717C85.8486 119.17 86.3839 119.532 86.8135 119.993C87.95 121.211 87.9335 122.731 86.803 123.96C84.9487 125.976 82.4341 126.729 79.9075 127.215C75.2562 128.111 70.5582 128.16 65.9888 126.742C64.3547 126.236 62.7348 125.415 61.3625 124.395C59.4017 122.937 59.5465 120.894 61.4582 119.382C63.3849 117.858 65.6552 117.158 68.0166 116.708C73.1926 115.723 78.2923 115.982 83.2796 117.752C83.9493 117.989 84.5718 118.36 85.2888 118.717Z" fill="#E60E68"/>
<path d="M59.5794 55.9355C54.1173 50.3083 52.1994 43.692 54.1818 36.2199C56.2333 28.4874 61.3992 23.606 69.1384 21.6415C80.4604 18.7674 92.1202 26.4902 93.9267 38.1473C95.742 49.8616 87.8151 59.6562 77.5502 61.4228C70.7293 62.5967 64.6812 60.8715 59.5794 55.9355ZM63.7123 50.2327C65.2706 51.3807 66.691 52.8242 68.4103 53.6268C76.9018 57.5909 87.1767 51.478 87.1087 41.3031C87.0693 35.4117 83.3835 30.4624 77.5259 28.6283C72.2525 26.9771 66.0408 29.1728 62.8942 33.8003C59.3652 38.99 59.6099 44.5974 63.7123 50.2327Z" fill="#E60E68"/>
</svg>
