<svg width="160" height="196" viewBox="0 0 160 196" fill="none" xmlns="http://www.w3.org/2000/svg">
<path d="M76.5231 120.346C70.7198 113.548 65.3696 106.513 60.5195 99.1041C54.256 89.5362 48.8172 79.5461 45.2815 68.6184C43.2888 62.4599 41.9379 56.168 42.0604 49.6456C42.2165 41.3385 45.0784 33.996 50.1965 27.5259C56.1189 20.0388 63.826 15.3047 73.1842 13.6078C78.7291 12.6024 84.3755 12.8116 89.8407 14.4805C105.238 19.1828 114.304 29.6188 117.38 45.3168C118.715 52.1277 117.453 58.7942 115.662 65.3574C112.836 75.7091 108.075 85.1994 102.513 94.3141C96.939 103.448 90.577 112.009 83.6562 120.16C82.4704 121.556 81.2072 122.999 79.1354 122.243C78.1863 121.896 77.4239 121.038 76.5231 120.346ZM94.0827 23.686C87.7789 20.4293 81.1313 19.515 74.1636 20.7422C58.6606 23.4728 46.6449 38.3754 49.3153 55.8992C50.2922 62.3091 52.2433 68.4431 54.8475 74.3768C60.268 86.7272 67.6313 97.8786 75.8591 108.495C77.0967 110.092 78.4296 111.615 79.7734 113.238C80.0458 112.946 80.2396 112.757 80.4125 112.551C87.3613 104.248 93.5727 95.4259 98.9458 86.0243C103.39 78.2473 107.115 70.1522 109.217 61.4007C110.344 56.7102 111.253 51.9665 110.47 47.1063C108.799 36.7338 103.487 28.8765 94.0827 23.686Z" fill="#E60E68"/>
<path d="M91.2891 128.289C91.8488 128.743 92.3842 129.104 92.8137 129.565C93.9502 130.783 93.9338 132.304 92.8033 133.533C90.9489 135.549 88.4344 136.301 85.9078 136.787C81.2564 137.683 76.5584 137.732 71.9891 136.315C70.355 135.808 68.735 134.987 67.3628 133.967C65.402 132.509 65.5468 130.466 67.4585 128.954C69.3851 127.431 71.6555 126.73 74.0168 126.28C79.1929 125.295 84.2926 125.554 89.2798 127.324C89.9496 127.561 90.5721 127.932 91.2891 128.289Z" fill="#E60E68"/>
<path d="M65.5791 65.5077C60.117 59.8806 58.1992 53.2642 60.1816 45.7921C62.233 38.0596 67.3989 33.1783 75.1382 31.2137C86.4602 28.3397 98.12 36.0624 99.9264 47.7195C101.742 59.4339 93.8148 69.2285 83.55 70.9951C76.7291 72.169 70.6809 70.4437 65.5791 65.5077ZM69.7121 59.805C71.2703 60.953 72.6908 62.3964 74.41 63.199C82.9016 67.1632 93.1765 61.0503 93.1084 50.8754C93.069 44.984 89.3832 40.0347 83.5257 38.2006C78.2523 36.5494 72.0406 38.7451 68.8939 43.3725C65.3649 48.5622 65.6096 54.1697 69.7121 59.805Z" fill="#E60E68"/>
<path d="M5.856 163.712C4.256 163.712 2.944 163.248 1.92 162.32C0.928 161.392 0.432 160.112 0.432 158.48C0.432 156.88 0.88 155.6 1.776 154.64C2.704 153.648 4.064 153.152 5.856 153.152H26.544C28.336 153.152 29.68 153.648 30.576 154.64C31.504 155.6 31.968 156.88 31.968 158.48C31.968 160.112 31.456 161.392 30.432 162.32C29.44 163.248 28.144 163.712 26.544 163.712C25.456 163.712 24.576 163.6 23.904 163.376C23.264 163.12 22.736 162.832 22.32 162.512C21.904 162.16 21.504 161.872 21.12 161.648C20.736 161.392 20.256 161.264 19.68 161.264L19.248 162.128C19.376 162.416 19.6 162.832 19.92 163.376C20.24 163.888 20.544 164.64 20.832 165.632C21.12 166.592 21.264 167.904 21.264 169.568V183.44C21.264 184.752 20.768 185.84 19.776 186.704C18.816 187.568 17.632 188 16.224 188C14.784 188 13.568 187.568 12.576 186.704C11.616 185.84 11.136 184.752 11.136 183.44V169.568C11.136 167.904 11.28 166.592 11.568 165.632C11.856 164.64 12.16 163.888 12.48 163.376C12.832 162.832 13.072 162.416 13.2 162.128L12.72 161.264C12.144 161.264 11.664 161.392 11.28 161.648C10.896 161.872 10.496 162.16 10.08 162.512C9.664 162.832 9.136 163.12 8.496 163.376C7.856 163.6 6.976 163.712 5.856 163.712ZM32.673 188C31.169 188 30.001 187.568 29.169 186.704C28.337 185.84 27.921 184.752 27.921 183.44V167.696C27.921 166.32 28.337 165.184 29.169 164.288C30.001 163.36 31.169 162.896 32.673 162.896C34.177 162.896 35.329 163.36 36.129 164.288C36.929 165.184 37.329 166.288 37.329 167.6V168.608H38.241C38.369 166.912 39.009 165.52 40.161 164.432C41.313 163.344 42.673 162.8 44.241 162.8C45.809 162.8 47.041 163.28 47.937 164.24C48.865 165.2 49.329 166.48 49.329 168.08C49.329 169.584 48.897 170.832 48.033 171.824C47.169 172.816 46.065 173.312 44.721 173.312C43.601 173.312 42.657 173.056 41.889 172.544C41.153 172 40.609 171.376 40.257 170.672C39.233 170.544 38.481 170.656 38.001 171.008C37.553 171.328 37.329 171.984 37.329 172.976V183.44C37.329 184.752 36.929 185.84 36.129 186.704C35.329 187.568 34.177 188 32.673 188ZM50.8853 157.328C50.8853 155.952 51.3013 154.848 52.1333 154.016C52.9973 153.152 54.1813 152.72 55.6853 152.72C57.2853 152.72 58.4693 153.136 59.2373 153.968C60.0373 154.8 60.4373 155.904 60.4373 157.28C60.4373 158.624 60.0373 159.712 59.2373 160.544C58.4693 161.344 57.2853 161.744 55.6853 161.744C54.1173 161.744 52.9173 161.344 52.0853 160.544C51.2853 159.712 50.8853 158.64 50.8853 157.328ZM55.6853 188C54.1813 188 53.0613 187.584 52.3253 186.752C51.5893 185.92 51.2213 184.88 51.2213 183.632V167.216C51.2213 165.84 51.5893 164.752 52.3253 163.952C53.0613 163.152 54.1813 162.752 55.6853 162.752C57.1893 162.752 58.3093 163.152 59.0453 163.952C59.8133 164.752 60.1973 165.808 60.1973 167.12V183.632C60.1973 184.88 59.7973 185.92 58.9973 186.752C58.2293 187.584 57.1253 188 55.6853 188ZM75.3229 188C73.2429 188 71.4669 187.392 69.9949 186.176C68.5229 184.96 67.3069 182.944 66.3469 180.128L62.5549 169.184C62.0429 167.744 62.0429 166.416 62.5549 165.2C63.0989 163.984 64.0909 163.216 65.5309 162.896C66.8109 162.608 67.9309 162.736 68.8909 163.28C69.8829 163.824 70.5869 164.736 71.0029 166.016L74.7469 177.008C75.1949 178.288 75.7389 179.232 76.3789 179.84C77.0509 180.448 77.8669 180.592 78.8269 180.272C79.7229 179.92 80.2029 179.344 80.2669 178.544C80.3629 177.712 80.1869 176.752 79.7389 175.664C79.3549 174.672 78.8429 173.824 78.2029 173.12C77.5629 172.416 76.9869 171.68 76.4749 170.912C75.9629 170.144 75.7069 169.184 75.7069 168.032C75.7069 166.368 76.2349 165.072 77.2909 164.144C78.3789 163.184 79.8029 162.736 81.5629 162.8C83.0669 162.832 84.2989 163.36 85.2589 164.384C86.2189 165.408 86.6989 166.704 86.6989 168.272C86.6989 169.136 86.5549 170.064 86.2669 171.056C85.9789 172.048 85.6589 173.088 85.3069 174.176L83.3869 180.224C82.8749 181.824 82.2989 183.216 81.6589 184.4C81.0509 185.552 80.2509 186.448 79.2589 187.088C78.2989 187.696 76.9869 188 75.3229 188ZM87.4946 175.52C87.4946 172.992 87.9906 170.768 88.9826 168.848C90.0066 166.928 91.4466 165.424 93.3026 164.336C95.1906 163.248 97.4306 162.704 100.023 162.704C102.039 162.704 103.847 163.072 105.447 163.808C107.079 164.544 108.359 165.536 109.287 166.784C110.215 168 110.679 169.344 110.679 170.816C110.679 172.352 110.231 173.44 109.335 174.08C108.439 174.72 107.111 175.04 105.351 175.04H95.2706C95.2706 175.872 95.5906 176.56 96.2306 177.104C96.9026 177.648 98.0226 177.92 99.5906 177.92C100.391 177.92 101.127 177.84 101.799 177.68C102.503 177.52 103.207 177.376 103.911 177.248C104.647 177.088 105.463 177.008 106.359 177.008C107.639 177.008 108.695 177.472 109.527 178.4C110.359 179.296 110.775 180.544 110.775 182.144C110.775 184.032 109.799 185.504 107.847 186.56C105.927 187.616 103.399 188.144 100.263 188.144C98.0546 188.144 95.9746 187.712 94.0226 186.848C92.1026 185.984 90.5346 184.624 89.3186 182.768C88.1026 180.88 87.4946 178.464 87.4946 175.52ZM103.047 173.456C103.527 173.456 103.687 173.232 103.527 172.784C103.399 172.336 103.015 171.872 102.375 171.392C101.735 170.912 100.807 170.672 99.5906 170.672C98.1826 170.672 97.1266 170.976 96.4226 171.584C95.7506 172.192 95.4146 172.816 95.4146 173.456H103.047ZM118.126 188C116.622 188 115.454 187.568 114.622 186.704C113.79 185.84 113.374 184.752 113.374 183.44V167.696C113.374 166.32 113.79 165.184 114.622 164.288C115.454 163.36 116.622 162.896 118.126 162.896C119.63 162.896 120.782 163.36 121.582 164.288C122.382 165.184 122.782 166.288 122.782 167.6V168.608H123.694C123.822 166.912 124.462 165.52 125.614 164.432C126.766 163.344 128.126 162.8 129.694 162.8C131.262 162.8 132.494 163.28 133.39 164.24C134.318 165.2 134.782 166.48 134.782 168.08C134.782 169.584 134.35 170.832 133.486 171.824C132.622 172.816 131.518 173.312 130.174 173.312C129.054 173.312 128.11 173.056 127.342 172.544C126.606 172 126.062 171.376 125.71 170.672C124.686 170.544 123.934 170.656 123.454 171.008C123.006 171.328 122.782 171.984 122.782 172.976V183.44C122.782 184.752 122.382 185.84 121.582 186.704C120.782 187.568 119.63 188 118.126 188ZM142.181 188C139.813 188 137.957 187.36 136.613 186.08C135.301 184.8 134.645 183.008 134.645 180.704C134.645 178.4 135.413 176.736 136.949 175.712C138.485 174.656 140.453 174.128 142.853 174.128C144.261 174.128 145.541 174.224 146.693 174.416C147.845 174.608 148.885 174.88 149.813 175.232H149.957V174.512C149.957 173.776 149.685 173.2 149.141 172.784C148.597 172.336 147.909 172.128 147.077 172.16C146.277 172.16 145.589 172.208 145.013 172.304C144.469 172.4 143.781 172.56 142.949 172.784C141.413 173.168 140.085 173.136 138.965 172.688C137.845 172.24 137.077 171.36 136.661 170.048C136.277 168.672 136.357 167.52 136.901 166.592C137.477 165.664 138.341 164.944 139.493 164.432C140.485 163.952 141.589 163.552 142.805 163.232C144.053 162.912 145.397 162.752 146.837 162.752C151.029 162.752 154.101 163.776 156.053 165.824C158.037 167.84 159.029 171.232 159.029 176V183.44C159.029 184.752 158.629 185.84 157.829 186.704C157.029 187.568 155.925 188 154.517 188C152.981 188 151.829 187.568 151.061 186.704C150.325 185.84 149.957 184.784 149.957 183.536V182.432H148.997C148.997 183.264 148.837 184.112 148.517 184.976C148.229 185.84 147.605 186.56 146.645 187.136C145.717 187.712 144.229 188 142.181 188ZM142.661 177.488C142.661 178.032 142.853 178.416 143.237 178.64C143.653 178.864 144.533 178.976 145.877 178.976C147.093 178.976 147.941 178.864 148.421 178.64C148.901 178.416 149.141 178.032 149.141 177.488C149.141 176.976 148.901 176.624 148.421 176.432C147.941 176.208 147.093 176.096 145.877 176.096C144.533 176.096 143.653 176.208 143.237 176.432C142.853 176.624 142.661 176.976 142.661 177.488Z" fill="#E60E68"/>
</svg>
