<svg width="30" height="30" viewBox="0 0 30 30" fill="none" xmlns="http://www.w3.org/2000/svg">
<rect x="0.5" y="0.5" width="29" height="29" rx="14.5" fill="#FAFBFC"/>
<rect x="0.5" y="0.5" width="29" height="29" rx="14.5" stroke="#A4A1AA"/>
<mask id="mask0_35063_12322" style="mask-type:alpha" maskUnits="userSpaceOnUse" x="0" y="0" width="30" height="30">
<circle cx="15" cy="15" r="15" fill="#D9D9D9"/>
</mask>
<g mask="url(#mask0_35063_12322)">
<path d="M14.0321 5.70495C13.376 5.80684 12.8899 5.96209 12.2824 6.2629C11.3686 6.71897 10.6736 7.29148 10.0903 8.08232C9.29805 9.15457 8.92866 10.2996 8.93352 11.6726C8.93838 12.4489 9.00643 12.8759 9.23001 13.5406C10.1 16.1557 12.7198 17.8684 15.4563 17.6112C16.8804 17.4802 18.0663 16.9417 19.0773 15.9713C19.9765 15.1077 20.5209 14.1519 20.8028 12.939C20.9583 12.2597 20.9777 11.1972 20.8465 10.5179C20.2827 7.66507 17.7698 5.60791 14.8827 5.63702C14.63 5.64187 14.246 5.67099 14.0321 5.70495Z" fill="#A4A1AA"/>
<path d="M8.71047 17.6858C8.05054 17.8144 7.36562 18.3441 6.53072 19.3676C5.13088 21.0855 4.28098 23.0913 4.00601 25.339C3.90602 26.1722 3.91102 28.2963 4.01101 28.7078C4.18099 29.361 4.60094 29.9267 5.20087 30.297C5.7858 30.6571 5.21587 30.6365 14.9447 30.6365C24.5836 30.6365 24.0337 30.6519 24.6386 30.3228C24.9936 30.1273 25.4735 29.6233 25.6535 29.2581C25.8985 28.7592 25.9335 28.5021 25.9335 27.206C25.9335 26.5425 25.9085 25.7813 25.8785 25.5035C25.6085 22.9062 24.4986 20.5146 22.7088 18.6733C22.0739 18.0201 21.684 17.7784 21.079 17.6755C20.4241 17.5624 19.8792 17.6909 19.1593 18.1384C17.0195 19.4705 14.1898 19.6917 11.8351 18.7196C11.4302 18.5499 11.2852 18.4779 10.4303 17.9892C9.85533 17.6704 9.3004 17.5675 8.71047 17.6858Z" fill="#A4A1AA"/>
</g>
</svg>
