<svg width="30" height="30" viewBox="0 0 30 30" fill="none" xmlns="http://www.w3.org/2000/svg">
<rect x="0.5" y="0.5" width="29" height="29" rx="14.5" fill="#FEE5EE"/>
<rect x="0.5" y="0.5" width="29" height="29" rx="14.5" stroke="#FDB3D1"/>
<mask id="mask0_34692_12246" style="mask-type:alpha" maskUnits="userSpaceOnUse" x="0" y="0" width="30" height="30">
<circle cx="15" cy="15" r="15" fill="#D9D9D9"/>
</mask>
<g mask="url(#mask0_34692_12246)">
<path d="M14.0323 5.70495C13.3761 5.80684 12.8901 5.96209 12.2825 6.2629C11.3687 6.71897 10.6737 7.29148 10.0904 8.08232C9.29818 9.15457 8.92878 10.2996 8.93364 11.6726C8.9385 12.4489 9.00655 12.8759 9.23013 13.5406C10.1002 16.1557 12.7199 17.8684 15.4564 17.6112C16.8805 17.4802 18.0664 16.9417 19.0774 15.9713C19.9766 15.1077 20.521 14.1519 20.8029 12.939C20.9584 12.2597 20.9779 11.1972 20.8466 10.5179C20.2828 7.66507 17.77 5.60791 14.8828 5.63702C14.6301 5.64187 14.2461 5.67099 14.0323 5.70495Z" fill="#FDB3D1"/>
<path d="M8.71059 17.6858C8.05066 17.8144 7.36574 18.3441 6.53084 19.3676C5.131 21.0855 4.2811 23.0913 4.00613 25.339C3.90614 26.1722 3.91114 28.2963 4.01113 28.7078C4.18111 29.361 4.60106 29.9267 5.20099 30.297C5.78593 30.6571 5.21599 30.6365 14.9449 30.6365C24.5838 30.6365 24.0338 30.6519 24.6387 30.3228C24.9937 30.1273 25.4736 29.6233 25.6536 29.2581C25.8986 28.7592 25.9336 28.5021 25.9336 27.206C25.9336 26.5425 25.9086 25.7813 25.8786 25.5035C25.6086 22.9062 24.4988 20.5146 22.709 18.6733C22.074 18.0201 21.6841 17.7784 21.0792 17.6755C20.4242 17.5624 19.8793 17.6909 19.1594 18.1384C17.0196 19.4705 14.19 19.6917 11.8352 18.7196C11.4303 18.5499 11.2853 18.4779 10.4304 17.9892C9.85546 17.6704 9.30052 17.5675 8.71059 17.6858Z" fill="#FDB3D1"/>
</g>
</svg>
