<svg width="105" height="26" viewBox="0 0 105 26" fill="none" xmlns="http://www.w3.org/2000/svg">
<path d="M7.26799 21.5768C6.04438 20.2104 4.91631 18.7964 3.89366 17.3072C2.57304 15.384 1.42628 13.376 0.680767 11.1795C0.260617 9.94158 -0.0242072 8.6769 0.00162371 7.36587C0.0345209 5.69613 0.637964 4.22026 1.71709 2.91974C2.96582 1.41483 4.59084 0.463252 6.56399 0.122178C7.73314 -0.0799178 8.92366 -0.037877 10.076 0.297594C13.3226 1.24275 15.2339 3.34043 15.8826 6.49578C16.1641 7.86479 15.898 9.20477 15.5203 10.524C14.9245 12.6047 13.9206 14.5123 12.7479 16.3444C11.5726 18.1803 10.2312 19.9011 8.77198 21.5395C8.52197 21.8202 8.25562 22.1101 7.8188 21.9581C7.61869 21.8885 7.45794 21.7159 7.26799 21.5768ZM10.9704 2.14792C9.64125 1.49331 8.23963 1.30953 6.77049 1.55621C3.50172 2.10507 0.968238 5.10054 1.5313 8.62286C1.73727 9.91128 2.14867 11.1442 2.69775 12.3369C3.84064 14.8194 5.39319 17.0608 7.128 19.1948C7.38893 19.5158 7.66998 19.8219 7.95331 20.1482C8.01076 20.0895 8.05162 20.0515 8.08808 20.01C9.55321 18.3411 10.8629 16.5678 11.9958 14.6781C12.9329 13.1149 13.7182 11.4878 14.1614 9.72868C14.399 8.78588 14.5908 7.83237 14.4257 6.85546C14.0734 4.77056 12.9532 3.19123 10.9704 2.14792Z" fill="#E60E68"/>
<path d="M10.4868 23.6602C10.608 23.7764 10.724 23.869 10.817 23.9869C11.0632 24.2989 11.0596 24.6883 10.8147 25.003C10.4131 25.5192 9.86845 25.7119 9.32121 25.8365C8.31375 26.0659 7.2962 26.0785 6.30651 25.7155C5.95256 25.5856 5.6017 25.3754 5.30448 25.1142C4.87978 24.741 4.91114 24.2177 5.32521 23.8306C5.74251 23.4404 6.23425 23.261 6.74571 23.1458C7.8668 22.8935 8.97137 22.9599 10.0516 23.413C10.1966 23.4739 10.3315 23.5689 10.4868 23.6602Z" fill="#E60E68"/>
<path d="M5.20868 10.8529C4.1368 9.74785 3.76044 8.44854 4.14946 6.98118C4.55204 5.46268 5.56579 4.5041 7.08454 4.1183C9.30636 3.5539 11.5945 5.07048 11.949 7.35968C12.3052 9.66012 10.7496 11.5836 8.73527 11.9305C7.39674 12.161 6.20985 11.8222 5.20868 10.8529ZM6.01973 9.733C6.32551 9.95844 6.60426 10.2419 6.94165 10.3995C8.60803 11.178 10.6244 9.97755 10.611 7.97942C10.6033 6.82248 9.87998 5.85054 8.73049 5.49037C7.69565 5.16611 6.47667 5.5973 5.85917 6.50603C5.16665 7.52517 5.21466 8.62635 6.01973 9.733Z" fill="#E60E68"/>
<path d="M25.5755 8.856C24.7755 8.856 24.1195 8.624 23.6075 8.16C23.1115 7.696 22.8635 7.056 22.8635 6.24C22.8635 5.44 23.0875 4.8 23.5355 4.32C23.9995 3.824 24.6795 3.576 25.5755 3.576H35.9195C36.8155 3.576 37.4875 3.824 37.9355 4.32C38.3995 4.8 38.6315 5.44 38.6315 6.24C38.6315 7.056 38.3755 7.696 37.8635 8.16C37.3675 8.624 36.7195 8.856 35.9195 8.856C35.3755 8.856 34.9355 8.8 34.5995 8.688C34.2795 8.56 34.0155 8.416 33.8075 8.256C33.5995 8.08 33.3995 7.936 33.2075 7.824C33.0155 7.696 32.7755 7.632 32.4875 7.632L32.2715 8.064C32.3355 8.208 32.4475 8.416 32.6075 8.688C32.7675 8.944 32.9195 9.32 33.0635 9.816C33.2075 10.296 33.2795 10.952 33.2795 11.784V18.72C33.2795 19.376 33.0315 19.92 32.5355 20.352C32.0555 20.784 31.4635 21 30.7595 21C30.0395 21 29.4315 20.784 28.9355 20.352C28.4555 19.92 28.2155 19.376 28.2155 18.72V11.784C28.2155 10.952 28.2875 10.296 28.4315 9.816C28.5755 9.32 28.7275 8.944 28.8875 8.688C29.0635 8.416 29.1835 8.208 29.2475 8.064L29.0075 7.632C28.7195 7.632 28.4795 7.696 28.2875 7.824C28.0955 7.936 27.8955 8.08 27.6875 8.256C27.4795 8.416 27.2155 8.56 26.8955 8.688C26.5755 8.8 26.1355 8.856 25.5755 8.856ZM38.984 21C38.232 21 37.648 20.784 37.232 20.352C36.816 19.92 36.608 19.376 36.608 18.72V10.848C36.608 10.16 36.816 9.592 37.232 9.144C37.648 8.68 38.232 8.448 38.984 8.448C39.736 8.448 40.312 8.68 40.712 9.144C41.112 9.592 41.312 10.144 41.312 10.8V11.304H41.768C41.832 10.456 42.152 9.76 42.728 9.216C43.304 8.672 43.984 8.4 44.768 8.4C45.552 8.4 46.168 8.64 46.616 9.12C47.08 9.6 47.312 10.24 47.312 11.04C47.312 11.792 47.096 12.416 46.664 12.912C46.232 13.408 45.68 13.656 45.008 13.656C44.448 13.656 43.976 13.528 43.592 13.272C43.224 13 42.952 12.688 42.776 12.336C42.264 12.272 41.888 12.328 41.648 12.504C41.424 12.664 41.312 12.992 41.312 13.488V18.72C41.312 19.376 41.112 19.92 40.712 20.352C40.312 20.784 39.736 21 38.984 21ZM48.0901 5.664C48.0901 4.976 48.2981 4.424 48.7141 4.008C49.1461 3.576 49.7381 3.36 50.4901 3.36C51.2901 3.36 51.8821 3.568 52.2661 3.984C52.6661 4.4 52.8661 4.952 52.8661 5.64C52.8661 6.312 52.6661 6.856 52.2661 7.272C51.8821 7.672 51.2901 7.872 50.4901 7.872C49.7061 7.872 49.1061 7.672 48.6901 7.272C48.2901 6.856 48.0901 6.32 48.0901 5.664ZM50.4901 21C49.7381 21 49.1781 20.792 48.8101 20.376C48.4421 19.96 48.2581 19.44 48.2581 18.816V10.608C48.2581 9.92 48.4421 9.376 48.8101 8.976C49.1781 8.576 49.7381 8.376 50.4901 8.376C51.2421 8.376 51.8021 8.576 52.1701 8.976C52.5541 9.376 52.7461 9.904 52.7461 10.56V18.816C52.7461 19.44 52.5461 19.96 52.1461 20.376C51.7621 20.792 51.2101 21 50.4901 21ZM60.3089 21C59.2689 21 58.3809 20.696 57.6449 20.088C56.9089 19.48 56.3009 18.472 55.8209 17.064L53.9249 11.592C53.6689 10.872 53.6689 10.208 53.9249 9.6C54.1969 8.992 54.6929 8.608 55.4129 8.448C56.0529 8.304 56.6129 8.368 57.0929 8.64C57.5889 8.912 57.9409 9.368 58.1489 10.008L60.0209 15.504C60.2449 16.144 60.5169 16.616 60.8369 16.92C61.1729 17.224 61.5809 17.296 62.0609 17.136C62.5089 16.96 62.7489 16.672 62.7809 16.272C62.8289 15.856 62.7409 15.376 62.5169 14.832C62.3249 14.336 62.0689 13.912 61.7489 13.56C61.4289 13.208 61.1409 12.84 60.8849 12.456C60.6289 12.072 60.5009 11.592 60.5009 11.016C60.5009 10.184 60.7649 9.536 61.2929 9.072C61.8369 8.592 62.5489 8.368 63.4289 8.4C64.1809 8.416 64.7969 8.68 65.2769 9.192C65.7569 9.704 65.9969 10.352 65.9969 11.136C65.9969 11.568 65.9249 12.032 65.7809 12.528C65.6369 13.024 65.4769 13.544 65.3009 14.088L64.3409 17.112C64.0849 17.912 63.7969 18.608 63.4769 19.2C63.1729 19.776 62.7729 20.224 62.2769 20.544C61.7969 20.848 61.1409 21 60.3089 21ZM66.3948 14.76C66.3948 13.496 66.6428 12.384 67.1388 11.424C67.6508 10.464 68.3708 9.712 69.2988 9.168C70.2428 8.624 71.3628 8.352 72.6588 8.352C73.6668 8.352 74.5708 8.536 75.3708 8.904C76.1868 9.272 76.8268 9.768 77.2908 10.392C77.7548 11 77.9868 11.672 77.9868 12.408C77.9868 13.176 77.7628 13.72 77.3148 14.04C76.8668 14.36 76.2028 14.52 75.3228 14.52H70.2828C70.2828 14.936 70.4428 15.28 70.7628 15.552C71.0988 15.824 71.6588 15.96 72.4428 15.96C72.8428 15.96 73.2108 15.92 73.5468 15.84C73.8988 15.76 74.2508 15.688 74.6028 15.624C74.9708 15.544 75.3788 15.504 75.8268 15.504C76.4668 15.504 76.9948 15.736 77.4108 16.2C77.8268 16.648 78.0348 17.272 78.0348 18.072C78.0348 19.016 77.5468 19.752 76.5708 20.28C75.6108 20.808 74.3468 21.072 72.7788 21.072C71.6748 21.072 70.6348 20.856 69.6588 20.424C68.6988 19.992 67.9148 19.312 67.3068 18.384C66.6988 17.44 66.3948 16.232 66.3948 14.76ZM74.1708 13.728C74.4108 13.728 74.4908 13.616 74.4108 13.392C74.3468 13.168 74.1548 12.936 73.8348 12.696C73.5148 12.456 73.0508 12.336 72.4428 12.336C71.7388 12.336 71.2108 12.488 70.8588 12.792C70.5228 13.096 70.3548 13.408 70.3548 13.728H74.1708ZM81.7105 21C80.9585 21 80.3745 20.784 79.9585 20.352C79.5425 19.92 79.3345 19.376 79.3345 18.72V10.848C79.3345 10.16 79.5425 9.592 79.9585 9.144C80.3745 8.68 80.9585 8.448 81.7105 8.448C82.4625 8.448 83.0385 8.68 83.4385 9.144C83.8385 9.592 84.0385 10.144 84.0385 10.8V11.304H84.4945C84.5585 10.456 84.8785 9.76 85.4545 9.216C86.0305 8.672 86.7105 8.4 87.4945 8.4C88.2785 8.4 88.8945 8.64 89.3425 9.12C89.8065 9.6 90.0385 10.24 90.0385 11.04C90.0385 11.792 89.8225 12.416 89.3905 12.912C88.9585 13.408 88.4065 13.656 87.7345 13.656C87.1745 13.656 86.7025 13.528 86.3185 13.272C85.9505 13 85.6785 12.688 85.5025 12.336C84.9905 12.272 84.6145 12.328 84.3745 12.504C84.1505 12.664 84.0385 12.992 84.0385 13.488V18.72C84.0385 19.376 83.8385 19.92 83.4385 20.352C83.0385 20.784 82.4625 21 81.7105 21ZM93.7381 21C92.5541 21 91.6261 20.68 90.9541 20.04C90.2981 19.4 89.9701 18.504 89.9701 17.352C89.9701 16.2 90.3541 15.368 91.1221 14.856C91.8901 14.328 92.8741 14.064 94.0741 14.064C94.7781 14.064 95.4181 14.112 95.9941 14.208C96.5701 14.304 97.0901 14.44 97.5541 14.616H97.6261V14.256C97.6261 13.888 97.4901 13.6 97.2181 13.392C96.9461 13.168 96.6021 13.064 96.1861 13.08C95.7861 13.08 95.4421 13.104 95.1541 13.152C94.8821 13.2 94.5381 13.28 94.1221 13.392C93.3541 13.584 92.6901 13.568 92.1301 13.344C91.5701 13.12 91.1861 12.68 90.9781 12.024C90.7861 11.336 90.8261 10.76 91.0981 10.296C91.3861 9.832 91.8181 9.472 92.3941 9.216C92.8901 8.976 93.4421 8.776 94.0501 8.616C94.6741 8.456 95.3461 8.376 96.0661 8.376C98.1621 8.376 99.6981 8.888 100.674 9.912C101.666 10.92 102.162 12.616 102.162 15V18.72C102.162 19.376 101.962 19.92 101.562 20.352C101.162 20.784 100.61 21 99.9061 21C99.1381 21 98.5621 20.784 98.1781 20.352C97.8101 19.92 97.6261 19.392 97.6261 18.768V18.216H97.1461C97.1461 18.632 97.0661 19.056 96.9061 19.488C96.7621 19.92 96.4501 20.28 95.9701 20.568C95.5061 20.856 94.7621 21 93.7381 21ZM93.9781 15.744C93.9781 16.016 94.0741 16.208 94.2661 16.32C94.4741 16.432 94.9141 16.488 95.5861 16.488C96.1941 16.488 96.6181 16.432 96.8581 16.32C97.0981 16.208 97.2181 16.016 97.2181 15.744C97.2181 15.488 97.0981 15.312 96.8581 15.216C96.6181 15.104 96.1941 15.048 95.5861 15.048C94.9141 15.048 94.4741 15.104 94.2661 15.216C94.0741 15.312 93.9781 15.488 93.9781 15.744Z" fill="#E60E68"/>
</svg>
