<svg width="148" height="140" viewBox="0 0 148 140" fill="none" xmlns="http://www.w3.org/2000/svg">
<path d="M70.5231 120.346C64.7198 113.548 59.3696 106.513 54.5195 99.1041C48.256 89.5362 42.8172 79.5461 39.2815 68.6184C37.2888 62.4599 35.9379 56.168 36.0604 49.6456C36.2165 41.3385 39.0784 33.996 44.1965 27.5259C50.1189 20.0388 57.826 15.3047 67.1842 13.6078C72.7291 12.6024 78.3755 12.8116 83.8407 14.4805C99.2385 19.1828 108.304 29.6188 111.38 45.3168C112.715 52.1277 111.453 58.7942 109.662 65.3574C106.836 75.7091 102.075 85.1994 96.5128 94.3141C90.939 103.448 84.577 112.009 77.6562 120.16C76.4704 121.556 75.2072 122.999 73.1354 122.243C72.1863 121.896 71.4239 121.038 70.5231 120.346ZM88.0827 23.686C81.7789 20.4293 75.1313 19.515 68.1636 20.7422C52.6606 23.4728 40.6449 38.3754 43.3153 55.8992C44.2922 62.3091 46.2433 68.4431 48.8475 74.3768C54.268 86.7272 61.6313 97.8786 69.8591 108.495C71.0967 110.092 72.4296 111.615 73.7734 113.238C74.0458 112.946 74.2396 112.757 74.4125 112.551C81.3613 104.248 87.5727 95.4259 92.9458 86.0243C97.3904 78.2473 101.115 70.1522 103.217 61.4007C104.344 56.7102 105.253 51.9665 104.47 47.1063C102.799 36.7338 97.4867 28.8765 88.0827 23.686Z" fill="#B3B5BC"/>
<path d="M59.5796 65.5077C54.1175 59.8806 52.1997 53.2642 54.182 45.7921C56.2335 38.0596 61.3994 33.1783 69.1386 31.2137C80.4606 28.3397 92.1205 36.0624 93.9269 47.7195C95.7423 59.4339 87.8153 69.2285 77.5505 70.9951C70.7296 72.169 64.6814 70.4437 59.5796 65.5077ZM63.7126 59.805C65.2708 60.953 66.6913 62.3964 68.4105 63.199C76.9021 67.1631 87.1769 61.0503 87.1089 50.8754C87.0695 44.984 83.3837 40.0347 77.5261 38.2006C72.2528 36.5494 66.041 38.7451 62.8944 43.3725C59.3654 48.5622 59.6101 54.1697 63.7126 59.805Z" fill="#B3B5BC"/>
</svg>
